<?xml version="1.0" encoding="UTF-8" ?>
<!DOCTYPE svg PUBLIC "-//W3C//DTD SVG 1.1//EN" "http://www.w3.org/Graphics/SVG/1.1/DTD/svg11.dtd">
<svg width="167pt" height="100pt" viewBox="0 0 167 100" version="1.1" xmlns="http://www.w3.org/2000/svg">
<g id="#e7e9e9ff">
</g>
<g id="#f36c21ff">
<path fill="#f36c21" opacity="1.00" d=" M 14.42 23.92 C 19.29 21.50 24.82 16.41 30.44 19.62 C 48.01 28.45 65.62 37.18 83.18 46.03 C 85.41 47.37 87.62 45.56 89.59 44.63 C 106.46 36.15 123.35 27.72 140.23 19.30 C 144.67 16.84 148.96 20.59 152.92 22.27 C 154.26 22.59 154.60 23.84 154.91 25.01 C 133.55 36.02 111.92 46.53 90.47 57.39 C 88.42 58.32 86.29 59.77 83.92 59.25 C 81.45 58.52 79.22 57.17 76.91 56.06 C 57.13 46.17 37.36 36.26 17.56 26.40 C 16.33 25.83 15.33 24.90 14.42 23.92 Z" />
<path fill="#f36c21" opacity="1.00" d=" M 23.28 46.22 C 26.03 44.80 29.19 45.81 31.71 47.23 C 48.84 55.88 66.04 64.37 83.16 73.01 C 85.36 74.34 87.48 72.26 89.45 71.45 C 106.06 63.11 122.69 54.78 139.34 46.51 C 144.45 43.65 149.32 47.88 153.87 49.82 C 154.98 50.23 155.27 52.36 153.85 52.59 C 133.19 63.11 112.37 73.32 91.67 83.78 C 88.65 85.41 84.99 87.29 81.61 85.39 C 59.36 74.24 37.01 63.25 14.85 51.91 C 14.96 51.50 15.18 50.68 15.29 50.27 C 17.88 48.79 20.59 47.51 23.28 46.22 Z" />
</g>
</svg>
